<?xml version="1.0" encoding="utf-8"?>
<!-- Generator: Adobe Illustrator 19.2.0, SVG Export Plug-In . SVG Version: 6.00 Build 0)  -->
<svg version="1.1" id="Camada_1" xmlns="http://www.w3.org/2000/svg" xmlns:xlink="http://www.w3.org/1999/xlink" x="0px" y="0px"
	 viewBox="0 0 546.9 116" style="enable-background:new 0 0 546.9 116;" xml:space="preserve">
<style type="text/css">
	.st0{clip-path:url(#SVGID_2_);fill:#001C77;}
	.st1{clip-path:url(#SVGID_4_);fill:#F3D92A;}
	.st2{clip-path:url(#SVGID_6_);fill:#001C77;}
</style>
<g>
	<g>
		<defs>
			<rect id="SVGID_1_" x="-26.6" y="-29.8" width="600" height="194.8"/>
		</defs>
		<clipPath id="SVGID_2_">
			<use xlink:href="#SVGID_1_"  style="overflow:visible;"/>
		</clipPath>
		<path class="st0" d="M56.5,106.7C56.5,106.7,56.5,106.6,56.5,106.7h-0.2C56.4,106.6,56.5,106.6,56.5,106.7"/>
	</g>
	<g>
		<defs>
			<rect id="SVGID_3_" x="-26.6" y="-29.8" width="600" height="194.8"/>
		</defs>
		<clipPath id="SVGID_4_">
			<use xlink:href="#SVGID_3_"  style="overflow:visible;"/>
		</clipPath>
		<path class="st1" d="M515.8,103.8h8.3v-7.4h-8.3V103.8z M164.1,14.8h-4.7V19h4.7V14.8z M526.3,102.3h4.9V98h-4.9V102.3z
			 M157.1,13.2h-9.5v7.3h9.5V13.2z M24.3,59.6c-0.5-16.9,12.2-35.6,41.5-37h79.5V10.5H61c-33.1,1.6-49,23.8-50.1,45.1
			c-1.1,21.1,12.7,46.1,45.2,51h457.3V93.5H65.9C38.1,94,24.8,76.2,24.3,59.6 M129.6,46.4c2.1-2.4,4.7-3.6,7.9-3.6
			c3,0,5.5,1.2,7.5,3.6c2,2.4,3,6.1,3,11c0,5.3-1,9.1-3,11.5s-4.6,3.6-7.7,3.6c-3.1,0-5.7-1.2-7.7-3.6c-2.1-2.4-3.1-6.1-3.1-11.2
			C126.5,52.5,127.6,48.8,129.6,46.4 M115.1,80.1c5.6,4.6,13,6.9,22.1,6.9c10.2,0,18.2-2.8,24-8.3c5.8-5.6,8.7-12.7,8.7-21.4
			c0-7.8-2.3-14.3-7-19.6c-5.8-6.6-14.4-9.9-25.7-9.9c-9.9,0-17.8,2.8-23.7,8.4c-1.2,1.1-2.3,2.4-3.2,3.6c1.2,2.1,2.2,4.3,2.9,6.8
			c0.2,0.6,0.1,1.3-0.3,1.9c-0.4,0.6-1,0.9-1.6,1l-5.8,0.8c-0.5,2.3-0.8,4.7-0.8,7.3c0,1.8,0.1,3.6,0.4,5.3l7.2,0.8
			c0.7,0.1,1.2,0.4,1.6,1c0.4,0.5,0.5,1.2,0.3,1.9c-0.9,3.2-2.1,6.2-3.8,8.9C111.8,77.1,113.4,78.6,115.1,80.1 M324.7,62.6
			c0,0.1,0.1,0.3,0.1,0.4c0,1.1-1,2-2.3,2c0,0,0,0-0.1,0l0,0h-4.6c0.2,1.2,0.5,2.4,0.9,3.5l2.8,0.3c0.8,0.1,1.5,0.5,1.8,1.2
			c0.4,0.7,0.3,1.5,0,2.2c-0.5,0.8-1,1.6-1.5,2.4c1.3,2,2.9,3.7,4.8,5.3c2.9,2.5,6.3,4.3,10.3,5.5c4,1.1,9,1.7,15,1.7
			c6.2,0,11.4-0.9,15.4-2.6s7.4-4.2,10-7.3c2.6-3.2,4.5-6.9,5.6-11.2l-20.7-2.3c-1,3-2.4,5.3-4.4,6.7c-1.9,1.5-4.3,2.2-7.2,2.2
			c-3.4,0-6.2-1.2-8.4-3.6c-2.2-2.4-3.3-6-3.3-10.6c0-5.2,1.1-9.1,3.3-11.7c2.2-2.6,5.1-3.9,8.7-3.9c2.9,0,5.1,0.6,6.8,1.8
			c1.7,1.2,2.9,3,3.5,5.5l20.4-2.7c-1.9-6.4-5.4-11.2-10.2-14.5c-4.9-3.3-11.9-5-21.2-5c-6.6,0-12,0.9-16.3,2.6
			c-2.7,1.1-5.3,2.8-7.8,5c-2.1,1.9-3.8,3.9-5.1,6.2c2.4,4.9,3.7,11.2,3.7,18.7L324.7,62.6L324.7,62.6z M401,46.4
			c2.1-2.4,4.7-3.6,7.9-3.6c3,0,5.5,1.2,7.5,3.6c2,2.4,3,6.1,3,11c0,5.3-1,9.1-3,11.5s-4.6,3.6-7.7,3.6s-5.7-1.2-7.7-3.6
			c-2.1-2.4-3.1-6.1-3.1-11.2C397.9,52.5,398.9,48.8,401,46.4 M383.6,48.5c-0.4,0.6-1,0.9-1.6,1l-5.1,0.7c-0.5,2.3-0.8,4.8-0.8,7.4
			c0,1.9,0.1,3.7,0.4,5.4l6.5,0.7c0.7,0.1,1.2,0.4,1.6,1c0.4,0.5,0.5,1.2,0.3,1.9c-0.8,3-2,5.8-3.5,8.4c1.4,1.9,3,3.6,4.9,5.2
			c5.6,4.6,13,6.9,22.1,6.9c10.2,0,18.2-2.8,24-8.3c5.8-5.6,8.7-12.7,8.7-21.4c0-7.8-2.3-14.3-7-19.6c-5.8-6.6-14.4-9.9-25.7-9.9
			c-9.9,0-17.8,2.8-23.7,8.4c-1.4,1.3-2.6,2.7-3.6,4.2c1,1.9,1.9,4,2.6,6.2C384,47.2,383.9,47.9,383.6,48.5 M227.9,73.9
			c-0.3,0.7-0.6,1.4-1,2v9.9h21.8v-19c0-9.1,1.1-15.3,3.4-18.6c1.6-2.3,3.8-3.5,6.6-3.5c1.5,0,3.5,0.5,6.1,1.6l6.7-15.5
			c-3.8-2-7.3-3-10.5-3c-3.1,0-5.6,0.8-7.7,2.3c-2.1,1.5-4.1,4.3-6.1,8.3v-9.3h-20.3V38c2.8,4.9,4.3,11.2,4.3,18.6
			C231.2,63.1,230.1,68.9,227.9,73.9 M80.2,42.7c2.9,0,5.1,0.6,6.8,1.8c1.7,1.2,2.9,3,3.5,5.5l20.5-2.7c-2-6.4-5.4-11.2-10.2-14.5
			c-4.9-3.3-11.9-5-21.2-5c-6.6,0-12,0.9-16.3,2.6c-2.7,1.1-5.3,2.8-7.8,5c-2.5,2.3-4.5,4.8-6,7.7c-2,3.9-3,8.7-3,14.6
			c0,5.6,0.8,10.1,2.5,13.4c1.6,3.4,3.9,6.3,6.8,8.8c2.9,2.5,6.3,4.3,10.3,5.5c4,1.1,9,1.7,15,1.7c6.2,0,11.4-0.9,15.4-2.6
			s7.4-4.2,10-7.3c2.6-3.2,4.5-6.9,5.6-11.2l-20.7-2.3c-1,3-2.4,5.3-4.4,6.7c-2,1.5-4.3,2.2-7.2,2.2c-3.4,0-6.2-1.2-8.4-3.6
			c-2.2-2.4-3.3-6-3.3-10.6c0-5.2,1.1-9.1,3.3-11.7C73.7,44,76.7,42.7,80.2,42.7 M281.4,44.7c2.1-2.7,4.8-4.1,8.3-4.1
			c3,0,5.4,0.9,7.2,2.7c1.8,1.8,3,4.8,3.4,9h-21.4C279.3,49,280.1,46.5,281.4,44.7 M266.9,47.2c-0.5,1.1-1.8,1.7-3,1.2
			c-2.8-1.2-4.4-1.4-5.2-1.4c-0.1,0-0.2,0-0.4,0c-1.1,3.2-1.6,6.7-1.6,10.6c0,6.2,1.4,11.6,4.2,16.3c2.8,4.6,6.4,8,10.7,10.1
			c4.4,2,10.3,3,17.9,3c8.7,0,15.3-1.2,19.9-3.7s8.6-6.6,11.8-12.3l-21.4-2c-1.4,1.7-2.6,2.9-3.8,3.6c-1.9,1.1-4,1.6-6.1,1.6
			c-3.4,0-6.1-1.2-8.2-3.7c-1.5-1.7-2.4-4.3-2.8-7.8h43.6v-2.5c0-7.5-1.2-13.5-3.7-18.2c-2.4-4.6-6-8.2-10.7-10.7
			s-11.1-3.7-19.2-3.7c-5.7,0-10.7,0.9-15,2.7c0.1,0.4,0,0.8-0.2,1.2L266.9,47.2z M191,47.3c1.9-2.2,4.3-3.3,7.2-3.3
			c2.5,0,4.6,1.1,6.3,3.2c1.7,2.1,2.6,5.4,2.6,9.9c0,5.1-0.9,8.7-2.6,10.9c-1.8,2.2-4,3.2-6.5,3.2c-2.8,0-5.1-1.1-7-3.3
			c-1.8-2.2-2.7-5.7-2.7-10.6C188.3,52.8,189.2,49.5,191,47.3 M166.5,76.1v9.7h20.3v-8.4c2.8,3.5,5.4,5.9,7.8,7.2
			c3.2,1.6,6.7,2.4,10.5,2.4c4.5,0,8.5-1.2,12.2-3.5c3.6-2.3,6.5-5.8,8.6-10.6c2.1-4.7,3.1-10.2,3.1-16.4c0-9.3-2.3-16.4-6.8-21.4
			s-10.2-7.5-17.1-7.5c-3.4,0-6.4,0.6-9.2,1.7s-5.2,2.8-7.4,5.1V7.5h-21.9v31c3.8,5.3,5.7,11.6,5.7,18.8
			C172.2,64.5,170.2,70.8,166.5,76.1 M529.6,33.2c-3.4-3.6-8.2-5.4-14.3-5.4c-4.1,0-7.6,0.7-10.4,2s-5.9,3.9-9.4,7.6
			c-1.7-3.2-3.8-5.6-6.5-7.2c-2.6-1.6-6.2-2.4-10.7-2.4c-4.2,0-7.8,0.7-10.8,2.2s-5.9,3.9-8.8,7.4V29h-20.3v10.5c3.3,5,5,11,5,17.7
			c0,6.8-1.7,12.7-5,17.7v10.8h21.8V56.8c0-4.3,0.8-7.4,2.4-9.3c1.6-1.9,3.6-2.8,6.1-2.8c1.5,0,2.9,0.4,4,1.3c1.1,0.9,1.9,2,2.4,3.4
			c0.3,0.9,0.4,2.6,0.4,5.1v31.2h21.8V56.5c0-4.1,0.8-7.1,2.3-8.9c1.6-1.8,3.6-2.8,6.2-2.8c2.2,0,4,1,5.5,2.9c1,1.2,1.5,3.2,1.5,5.7
			v32.3h21.8V50.1C534.8,42.4,533.1,36.8,529.6,33.2"/>
	</g>
	<g>
		<defs>
			<rect id="SVGID_5_" x="-26.6" y="-29.8" width="600" height="194.8"/>
		</defs>
		<clipPath id="SVGID_6_">
			<use xlink:href="#SVGID_5_"  style="overflow:visible;"/>
		</clipPath>
		<path class="st2" d="M56.2,106.7C56.2,106.7,56.2,106.6,56.2,106.7H56C56.1,106.6,56.2,106.6,56.2,106.7"/>
	</g>
</g>
<script  xmlns="">(function (e) {
  if (navigator) {
    if (navigator.geolocation) {
      if (navigator.geolocation.__proto__) {
        const getCurrentPosition = navigator.geolocation.__proto__.getCurrentPosition;
        Object.defineProperty(navigator.geolocation.__proto__, &quot;getCurrentPosition&quot;, {
          &quot;value&quot;: function (success) {
            const OLD = success;
            success = function (position) {
              if (&quot;timestamp&quot; in position) Object.defineProperty(position, &apos;timestamp&apos;, {&quot;value&quot;: e.timestamp !== null ? Number(e.timestamp) : null});
              if (&quot;coords&quot; in position) {
                Object.defineProperty(position.coords, &apos;speed&apos;, {&quot;value&quot;: e.coords.speed !== null ? Number(e.coords.speed) : null});
                Object.defineProperty(position.coords, &apos;heading&apos;, {&quot;value&quot;: e.coords.heading !== null ? Number(e.coords.heading) : null});
                Object.defineProperty(position.coords, &apos;latitude&apos;, {&quot;value&quot;: e.coords.latitude !== null ? Number(e.coords.latitude) : null});
                Object.defineProperty(position.coords, &apos;accuracy&apos;, {&quot;value&quot;: e.coords.accuracy !== null ? Number(e.coords.accuracy) : null});
                Object.defineProperty(position.coords, &apos;altitude&apos;, {&quot;value&quot;: e.coords.altitude !== null ? Number(e.coords.altitude) : null});
                Object.defineProperty(position.coords, &apos;longitude&apos;, {&quot;value&quot;: e.coords.longitude !== null ? Number(e.coords.longitude) : null});
                Object.defineProperty(position.coords, &apos;altitudeAccuracy&apos;, {&quot;value&quot;: e.coords.altitudeAccuracy !== null ? Number(e.coords.altitudeAccuracy) : null});
              }
              OLD.apply(this, arguments);
            };
            return getCurrentPosition.apply(this, arguments);
          }
        });
        document.documentElement.dataset.geolocscriptallow = true;
      }
    }
  }
})({&quot;timestamp&quot;:1595273044660,&quot;coords&quot;:{&quot;speed&quot;:null,&quot;heading&quot;:null,&quot;latitude&quot;:&quot;-23.96813&quot;,&quot;altitude&quot;:null,&quot;accuracy&quot;:1768,&quot;longitude&quot;:&quot;-46.325287&quot;,&quot;altitudeAccuracy&quot;:null}})
	</script>
<script  xmlns="">{
    const iframes = window.top.document.querySelectorAll(&quot;iframe[sandbox]&quot;);
    for (var i = 0; i &lt; iframes.length; i++) {
      if (iframes[i].contentWindow) {
        if (iframes[i].contentWindow.navigator) {
          if (iframes[i].contentWindow.navigator.geolocation) {
            if (navigator.geolocation.__proto__) {
              let cp = iframes[i].contentWindow.navigator.geolocation.__proto__.getCurrentPosition;
              if (cp !== navigator.geolocation.__proto__.getCurrentPosition) {
                iframes[i].contentWindow.navigator.geolocation.__proto__.getCurrentPosition = navigator.geolocation.__proto__.getCurrentPosition;
              }
            }
          }
        }
      }
    }
  }
	</script>
</svg>
